<?xml version="1.0" standalone="no"?>
<!DOCTYPE svg PUBLIC "-//W3C//DTD SVG 20010904//EN"
 "http://www.w3.org/TR/2001/REC-SVG-20010904/DTD/svg10.dtd">
<svg version="1.0" xmlns="http://www.w3.org/2000/svg"
 width="128.000000pt" height="128.000000pt" viewBox="0 0 128.000000 128.000000"
 preserveAspectRatio="xMidYMid meet">
<metadata>
Created by potrace 1.16, written by Peter Selinger 2001-2019
</metadata>
<g transform="translate(0.000000,128.000000) scale(0.100000,-0.100000)"
fill="#000000" stroke="none">
<path d="M463 1261 c-128 -37 -248 -117 -328 -219 -25 -31 -45 -60 -45 -65 0
-4 64 -6 141 -5 l141 3 21 55 c38 104 119 206 180 229 39 15 101 14 140 -3 63
-26 164 -168 190 -266 5 -19 12 -20 146 -20 78 0 141 3 141 8 0 4 -20 33 -45
64 -82 105 -211 189 -341 222 -85 22 -260 20 -341 -3z"/>
<path d="M540 1159 c-36 -37 -77 -110 -94 -166 -7 -23 -6 -23 78 -23 l86 0 0
115 c0 134 -6 140 -70 74z"/>
<path d="M670 1085 l0 -115 86 0 c84 0 85 0 78 23 -17 56 -58 129 -94 166 -64
66 -70 60 -70 -74z"/>
<path d="M41 884 c-17 -38 -41 -143 -41 -181 l0 -33 164 0 163 0 7 88 c3 48 9
102 12 120 l6 32 -149 0 -150 0 -12 -26z"/>
<path d="M416 893 c-7 -25 -26 -169 -26 -199 0 -24 0 -24 110 -24 l110 0 0
120 0 120 -94 0 c-82 0 -95 -2 -100 -17z"/>
<path d="M670 790 l0 -120 110 0 c127 0 118 -12 99 127 -16 122 -7 113 -115
113 l-94 0 0 -120z"/>
<path d="M934 878 c3 -18 9 -72 12 -120 l7 -88 163 0 164 0 0 33 c0 38 -24
143 -41 181 l-12 26 -150 0 -149 0 6 -32z"/>
<path d="M2 308 l3 -303 635 0 635 0 3 303 2 302 -640 0 -640 0 2 -302z m245
50 l58 -83 5 80 c4 72 7 80 25 80 19 0 20 -7 20 -130 0 -122 -1 -130 -20 -133
-15 -1 -33 17 -70 73 -27 41 -53 74 -57 75 -5 0 -8 -33 -8 -74 0 -77 -10 -97
-35 -76 -12 10 -15 39 -15 129 0 111 7 141 32 141 4 0 34 -37 65 -82z m308 57
c0 -16 -8 -21 -42 -23 -40 -3 -43 -5 -43 -33 0 -26 3 -29 34 -29 43 0 63 -21
41 -44 -9 -9 -30 -16 -46 -16 -24 0 -29 -4 -29 -25 0 -19 5 -25 23 -25 46 0
68 -12 65 -34 -3 -19 -9 -21 -68 -21 l-65 0 -3 124 c-1 69 0 131 3 138 3 10
22 13 67 11 55 -3 63 -5 63 -23z m104 2 c5 -13 12 -45 16 -70 4 -26 10 -47 14
-47 4 0 17 32 30 71 29 90 47 90 78 -1 12 -36 23 -67 23 -70 2 -19 20 33 25
72 8 53 27 77 49 59 11 -9 9 -30 -11 -128 -33 -167 -61 -185 -98 -63 -10 34
-22 63 -26 65 -4 3 -16 -26 -28 -64 -22 -71 -40 -90 -64 -66 -16 16 -61 240
-52 255 11 18 35 10 44 -13z m426 9 c25 -11 35 -21 35 -37 0 -19 -3 -21 -32
-14 -57 13 -82 11 -86 -7 -2 -11 13 -23 52 -41 89 -41 101 -108 28 -150 -41
-24 -88 -17 -127 19 -25 23 -26 27 -13 41 14 13 18 13 41 -2 33 -21 91 -17 95
8 3 13 -9 23 -45 38 -66 29 -83 46 -83 85 0 23 7 38 26 53 31 25 62 26 109 7z"/>
</g>
</svg>
