<?xml version="1.0" standalone="no"?>
<!DOCTYPE svg PUBLIC "-//W3C//DTD SVG 20010904//EN"
 "http://www.w3.org/TR/2001/REC-SVG-20010904/DTD/svg10.dtd">
<svg version="1.0" xmlns="http://www.w3.org/2000/svg"
 width="128.000000pt" height="128.000000pt" viewBox="0 0 128.000000 128.000000"
 preserveAspectRatio="xMidYMid meet">
<metadata>
Created by potrace 1.16, written by Peter Selinger 2001-2019
</metadata>
<g transform="translate(0.000000,128.000000) scale(0.100000,-0.100000)"
fill="#000000" stroke="none">
<path d="M497 1214 c-105 -25 -185 -72 -272 -159 -57 -57 -89 -99 -113 -148
-83 -172 -83 -361 0 -534 45 -94 167 -216 261 -261 173 -83 362 -83 534 0 92
45 215 167 260 259 84 171 84 364 1 536 -45 93 -168 216 -261 261 -126 60
-280 78 -410 46z m-56 -144 c29 -35 37 -40 75 -40 52 0 72 -7 84 -30 17 -31 1
-50 -74 -87 -163 -81 -199 -117 -189 -189 10 -74 -32 -81 -121 -22 -36 24 -53
44 -63 72 -12 37 -11 42 18 102 35 72 112 158 179 203 25 17 48 31 52 31 4 0
22 -18 39 -40z m570 -57 c44 -47 79 -93 79 -104 0 -15 -27 -10 -41 7 -15 19
-85 15 -137 -7 -36 -15 -64 -5 -70 26 -6 27 88 115 123 115 6 0 27 -17 46 -37z
m9 -228 c23 -8 62 -15 86 -15 39 0 44 -3 51 -27 4 -16 8 -64 8 -108 0 -98 -29
-196 -82 -278 l-38 -58 -6 48 c-3 26 -18 72 -33 100 -14 29 -26 61 -26 73 0
11 -9 29 -21 41 -21 21 -30 21 -100 4 -17 -5 -31 -1 -42 10 -22 22 -39 88 -31
120 8 32 66 72 131 90 62 17 54 17 103 0z m-512 -161 c62 -26 67 -30 70 -53 2
-14 20 -30 53 -47 28 -13 53 -32 56 -41 11 -28 -17 -105 -52 -145 -19 -21 -35
-45 -35 -53 0 -8 -5 -37 -11 -65 -8 -39 -17 -54 -35 -62 -21 -10 -28 -8 -50
13 -42 39 -54 73 -54 149 0 68 -1 71 -31 89 -37 23 -79 82 -79 112 0 24 93
119 117 119 8 0 31 -7 51 -16z"/>
</g>
</svg>
