<?xml version="1.0" standalone="no"?>
<!DOCTYPE svg PUBLIC "-//W3C//DTD SVG 20010904//EN"
 "http://www.w3.org/TR/2001/REC-SVG-20010904/DTD/svg10.dtd">
<svg version="1.0" xmlns="http://www.w3.org/2000/svg"
 width="128.000000pt" height="128.000000pt" viewBox="0 0 128.000000 128.000000"
 preserveAspectRatio="xMidYMid meet">
<metadata>
Created by potrace 1.16, written by Peter Selinger 2001-2019
</metadata>
<g transform="translate(0.000000,128.000000) scale(0.100000,-0.100000)"
fill="#000000" stroke="none">
<path d="M840 1245 c-42 -19 -87 -60 -106 -97 l-15 -28 -347 0 c-257 0 -351
-3 -360 -12 -16 -16 -16 -70 0 -86 9 -9 103 -12 363 -12 l351 0 17 -35 c9 -19
35 -48 58 -65 35 -25 51 -30 101 -30 32 0 71 6 86 14 31 16 74 61 91 94 11 20
19 22 94 22 92 0 107 8 107 55 0 47 -15 55 -107 55 l-83 0 -20 40 c-40 79
-152 120 -230 85z m115 -130 c39 -39 32 -86 -17 -111 -63 -33 -126 31 -94 94
25 49 73 56 111 17z"/>
<path d="M295 813 c-41 -21 -74 -52 -91 -85 -14 -27 -17 -28 -94 -28 -88 0
-110 -12 -110 -60 0 -48 22 -60 110 -60 77 0 80 -1 94 -27 30 -59 101 -103
166 -103 75 0 146 42 170 101 l12 29 348 0 c383 0 380 0 380 60 0 60 3 60
-380 60 l-348 0 -12 29 c-34 83 -163 127 -245 84z m130 -123 c41 -45 10 -120
-48 -120 -38 0 -77 35 -77 69 0 60 85 95 125 51z"/>
<path d="M801 370 c-23 -17 -49 -46 -58 -65 l-17 -35 -351 0 c-260 0 -354 -3
-363 -12 -16 -16 -16 -70 0 -86 9 -9 103 -12 360 -12 l347 0 15 -29 c21 -39
77 -87 121 -101 78 -26 177 16 215 90 l20 40 83 0 c92 0 107 8 107 55 0 47
-15 55 -107 55 -80 0 -83 1 -97 28 -16 31 -60 74 -93 91 -12 6 -48 11 -81 11
-50 0 -65 -5 -101 -30z m139 -95 c75 -39 28 -152 -54 -131 -37 9 -61 60 -46
96 10 24 39 47 63 49 4 1 21 -6 37 -14z"/>
</g>
</svg>
