<?xml version="1.0" standalone="no"?>
<!DOCTYPE svg PUBLIC "-//W3C//DTD SVG 20010904//EN"
 "http://www.w3.org/TR/2001/REC-SVG-20010904/DTD/svg10.dtd">
<svg version="1.0" xmlns="http://www.w3.org/2000/svg"
 width="128.000000pt" height="128.000000pt" viewBox="0 0 128.000000 128.000000"
 preserveAspectRatio="xMidYMid meet">
<metadata>
Created by potrace 1.16, written by Peter Selinger 2001-2019
</metadata>
<g transform="translate(0.000000,128.000000) scale(0.100000,-0.100000)"
fill="#000000" stroke="none">
<path d="M439 1269 c-196 -29 -367 -178 -423 -368 -21 -71 -21 -220 0 -292 67
-231 305 -396 539 -374 78 7 172 36 223 67 l34 21 152 -152 c154 -153 184
-174 240 -164 42 8 76 57 76 110 0 45 -1 46 -156 203 l-156 158 26 66 c86 214
43 430 -115 585 -55 53 -158 113 -224 129 -63 16 -155 21 -216 11z m227 -209
c260 -126 254 -495 -9 -615 -148 -68 -317 -25 -412 105 -47 64 -67 122 -68
200 -3 254 260 421 489 310z"/>
</g>
</svg>
