<?xml version="1.0" standalone="no"?>
<!DOCTYPE svg PUBLIC "-//W3C//DTD SVG 20010904//EN"
 "http://www.w3.org/TR/2001/REC-SVG-20010904/DTD/svg10.dtd">
<svg version="1.0" xmlns="http://www.w3.org/2000/svg"
 width="128.000000pt" height="128.000000pt" viewBox="0 0 128.000000 128.000000"
 preserveAspectRatio="xMidYMid meet">
<metadata>
Created by potrace 1.16, written by Peter Selinger 2001-2019
</metadata>
<g transform="translate(0.000000,128.000000) scale(0.100000,-0.100000)"
fill="#000000" stroke="none">
<path d="M585 1266 c-156 -39 -261 -136 -227 -210 13 -29 164 -236 171 -236 4
0 16 37 29 81 63 227 101 227 164 0 13 -44 25 -81 29 -81 7 0 158 207 171 236
33 71 -84 181 -222 209 -19 3 -42 8 -50 10 -8 2 -37 -2 -65 -9z"/>
<path d="M175 1012 c-44 -21 -101 -79 -146 -150 -27 -42 -29 -53 -29 -140 0
-111 12 -158 52 -206 39 -47 59 -46 228 7 l135 43 -45 29 c-25 16 -73 51 -107
78 -106 83 -80 110 99 105 68 -2 108 1 107 7 0 6 -39 62 -87 125 -84 111 -89
115 -127 118 -23 1 -57 -6 -80 -16z"/>
<path d="M973 1008 c-31 -35 -163 -217 -163 -225 0 -5 48 -7 108 -5 179 5 205
-22 100 -105 -35 -27 -83 -62 -107 -77 l-45 -29 135 -43 c168 -55 188 -55 227
-8 40 48 52 95 52 206 0 87 -2 98 -29 140 -70 110 -146 167 -222 168 -24 0
-42 -7 -56 -22z"/>
<path d="M611 862 c-12 -43 -21 -88 -21 -101 0 -12 -5 -31 -10 -41 -9 -17 -20
-18 -138 -14 l-127 6 25 -21 c14 -11 62 -41 108 -67 45 -25 82 -49 82 -53 0
-3 -18 -46 -39 -96 -22 -49 -43 -103 -47 -119 l-7 -30 34 25 c19 13 62 50 96
81 34 32 67 58 73 58 6 0 39 -26 73 -58 34 -31 77 -68 96 -81 l34 -25 -7 30
c-4 16 -25 70 -47 119 -21 50 -39 93 -39 96 0 4 37 28 83 53 45 26 93 56 107
67 l25 21 -127 -6 c-144 -5 -140 -8 -152 74 -10 64 -37 160 -46 160 -4 0 -17
-35 -29 -78z"/>
<path d="M280 459 c-148 -48 -170 -65 -170 -139 0 -90 97 -242 177 -275 19 -8
67 -21 107 -29 63 -14 80 -14 127 -2 85 22 89 32 89 207 0 82 -3 149 -6 149
-3 0 -23 -13 -43 -29 -129 -101 -191 -131 -205 -96 -6 17 36 171 59 215 26 51
29 51 -135 -1z"/>
<path d="M856 483 c12 -28 61 -175 68 -205 4 -17 1 -32 -10 -42 -20 -20 -39
-11 -152 73 -45 34 -84 61 -87 61 -3 0 -5 -67 -5 -149 0 -175 4 -185 89 -207
47 -12 64 -12 127 2 40 8 88 21 107 29 80 33 177 185 177 275 0 74 -21 91
-172 139 -145 47 -153 48 -142 24z"/>
</g>
</svg>
