<?xml version="1.0" standalone="no"?>
<!DOCTYPE svg PUBLIC "-//W3C//DTD SVG 20010904//EN"
 "http://www.w3.org/TR/2001/REC-SVG-20010904/DTD/svg10.dtd">
<svg version="1.0" xmlns="http://www.w3.org/2000/svg"
 width="128.000000pt" height="128.000000pt" viewBox="0 0 128.000000 128.000000"
 preserveAspectRatio="xMidYMid meet">
<metadata>
Created by potrace 1.16, written by Peter Selinger 2001-2019
</metadata>
<g transform="translate(0.000000,128.000000) scale(0.100000,-0.100000)"
fill="#000000" stroke="none">
<path d="M400 1256 c-187 -77 -333 -246 -384 -443 -21 -78 -21 -249 -1 -328
39 -152 162 -318 297 -398 106 -63 199 -87 336 -87 129 0 188 12 286 58 138
65 239 165 308 307 48 98 49 148 5 153 -18 2 -38 -5 -59 -23 -76 -64 -196
-105 -309 -105 -281 0 -504 238 -487 518 6 93 35 171 94 258 47 68 51 83 32
102 -18 18 -56 14 -118 -12z"/>
<path d="M1082 1218 c-7 -7 -12 -24 -12 -39 0 -24 -5 -28 -31 -31 -64 -6 -64
-70 0 -76 27 -3 31 -7 31 -31 0 -36 22 -55 55 -47 21 5 25 12 25 41 0 32 2 34
38 37 30 2 38 7 40 26 5 32 -15 52 -49 52 -26 0 -29 3 -29 34 0 43 -39 63 -68
34z"/>
<path d="M773 988 c-6 -7 -20 -32 -32 -55 -15 -31 -35 -49 -73 -70 -46 -24
-53 -32 -53 -58 0 -26 7 -34 50 -57 38 -20 57 -39 80 -80 26 -45 35 -53 60
-53 25 0 34 8 60 53 23 41 42 60 80 80 43 23 50 31 50 57 0 26 -7 34 -50 57
-38 20 -57 39 -80 80 -32 55 -70 74 -92 46z"/>
</g>
</svg>
