<?xml version="1.0" standalone="no"?>
<!DOCTYPE svg PUBLIC "-//W3C//DTD SVG 20010904//EN"
 "http://www.w3.org/TR/2001/REC-SVG-20010904/DTD/svg10.dtd">
<svg version="1.0" xmlns="http://www.w3.org/2000/svg"
 width="128.000000pt" height="128.000000pt" viewBox="0 0 128.000000 128.000000"
 preserveAspectRatio="xMidYMid meet">
<metadata>
Created by potrace 1.16, written by Peter Selinger 2001-2019
</metadata>
<g transform="translate(0.000000,128.000000) scale(0.100000,-0.100000)"
fill="#000000" stroke="none">
<path d="M63 1260 c-63 -38 -64 -40 -61 -451 3 -342 4 -373 21 -383 12 -8 22
-8 35 0 15 10 17 37 20 298 l2 286 560 0 560 0 2 -286 c3 -261 5 -288 20 -298
13 -8 23 -8 35 0 17 10 18 41 21 383 3 411 2 413 -61 451 -31 19 -54 20 -577
20 -523 0 -546 -1 -577 -20z m1085 -71 c27 -9 52 -48 52 -80 0 -5 -252 -9
-560 -9 -308 0 -560 4 -560 9 0 30 25 71 48 80 38 14 980 14 1020 0z"/>
<path d="M272 738 c-8 -8 -12 -56 -12 -149 0 -145 7 -169 49 -169 26 0 39 19
43 65 l3 40 25 -44 c31 -54 53 -70 78 -55 15 10 17 29 17 165 l0 154 -35 0
-35 0 -5 -55 -5 -55 -14 33 c-30 72 -77 102 -109 70z"/>
<path d="M559 721 c-28 -29 -29 -32 -29 -131 0 -112 7 -133 50 -155 54 -28
136 -11 160 34 5 11 10 65 10 121 0 99 -1 102 -29 131 -25 25 -37 29 -81 29
-44 0 -56 -4 -81 -29z"/>
<path d="M807 743 c-11 -11 -8 -58 5 -71 7 -7 20 -12 30 -12 16 0 18 -11 18
-104 0 -110 9 -136 49 -136 34 0 41 21 41 131 l0 107 30 5 c21 5 31 14 36 32
11 45 -9 55 -111 55 -50 0 -95 -3 -98 -7z"/>
<path d="M25 296 c-25 -25 -26 -28 -23 -158 l3 -133 35 0 c35 0 35 0 38 47 l3
48 54 0 c56 0 85 16 85 49 0 30 -22 41 -82 41 -43 0 -58 4 -58 14 0 23 23 35
74 38 56 3 79 25 60 56 -9 13 -28 18 -88 20 -70 3 -78 1 -101 -22z"/>
<path d="M289 294 c-22 -24 -24 -33 -24 -134 0 -101 2 -110 24 -134 21 -22 33
-26 83 -26 49 0 63 4 83 25 24 23 25 31 25 135 0 104 -1 112 -25 135 -20 21
-34 25 -83 25 -50 0 -62 -4 -83 -26z"/>
<path d="M537 313 c-4 -3 -7 -60 -7 -125 0 -162 15 -187 111 -188 42 0 60 5
77 20 30 28 33 48 30 180 l-3 115 -31 3 c-17 2 -36 -3 -42 -11 -6 -7 -13 -59
-14 -118 -2 -84 -6 -104 -18 -104 -12 0 -16 20 -18 104 -1 58 -8 111 -14 118
-11 14 -60 18 -71 6z"/>
<path d="M804 307 c-2 -7 -3 -78 -2 -157 l3 -145 35 0 c35 0 35 0 40 50 l5 50
28 -52 c23 -45 32 -53 55 -53 48 0 52 13 52 161 0 150 -5 163 -57 157 -26 -3
-28 -7 -31 -52 l-3 -50 -30 52 c-25 45 -34 52 -60 52 -16 0 -32 -6 -35 -13z"/>
<path d="M1072 308 c-17 -17 -17 -279 0 -296 7 -7 42 -12 85 -12 65 0 77 3 98
25 24 23 25 31 25 135 0 104 -1 112 -25 135 -21 22 -33 25 -98 25 -43 0 -78
-5 -85 -12z"/>
</g>
</svg>
